   <svg class="logo-abbr" width="48" height="36" viewBox="0 0 48 36" fill="none" xmlns="http://www.w3.org/2000/svg">
                    <path class="svg-logo-path" d="M18.281 14.25C18.281 13.2145 19.1204 12.375 20.156 12.375H35.3438C36.3794 12.375 37.2188 13.2145 37.2188 14.25C37.2188 15.2856 36.3794 16.125 35.3438 16.125H20.156C19.1204 16.125 18.281 15.2856 18.281 14.25ZM44.25 14.25C44.25 15.2839 45.0911 16.125 46.125 16.125C47.1606 16.125 48 16.9645 48 18V26.2461C48 27.2817 47.1606 28.1211 46.125 28.1211H32.2766L25.3258 35.072C24.5935 35.8043 23.4063 35.8041 22.6742 35.072L15.7234 28.1211H1.875C0.839437 28.1211 0 27.2817 0 26.2461V18C0 16.9645 0.839437 16.125 1.875 16.125C2.90887 16.125 3.75 15.2839 3.75 14.25C3.75 13.2162 2.90887 12.375 1.875 12.375C0.839437 12.375 0 11.5356 0 10.5V2.25397C0 1.2184 0.839437 0.378967 1.875 0.378967H46.125C47.1606 0.378967 48 1.2184 48 2.25397V10.5C48 11.5356 47.1606 12.375 46.125 12.375C45.0911 12.375 44.25 13.2162 44.25 14.25ZM11.2498 4.12897H3.75V8.94631C5.93259 9.72022 7.5 11.8055 7.5 14.25C7.5 16.6946 5.93259 18.7798 3.75 19.5537V24.3711H11.2498V4.12897ZM44.25 4.12897H14.9998V24.3711H16.5C16.9972 24.3711 17.4743 24.5686 17.8258 24.9202L24 31.0945L30.1742 24.9203C30.5257 24.5687 31.0028 24.3712 31.5 24.3712H44.25V19.5538C42.0674 18.7799 40.5 16.6947 40.5 14.2501C40.5 11.8056 42.0674 9.72031 44.25 8.9464V4.12897Z" fill="#2130B8"></path>
                </svg>